<svg id="visual" viewBox="0 0 900 600" width="900" height="600" xmlns="http://www.w3.org/2000/svg" xmlns:xlink="http://www.w3.org/1999/xlink" version="1.1"><g transform="translate(525.65575818830814 321.60895047219395)"><path d="M91.2 -150.5C115 -108.2 128.8 -77.3 143.8 -43.7C158.8 -10.2 175 26 167.5 56.1C160 86.2 128.8 110.2 96.9 138.4C65 166.5 32.5 198.8 -1.3 200.5C-35.1 202.3 -70.1 173.5 -94.9 143.1C-119.6 112.6 -134 80.4 -156.2 43.3C-178.5 6.3 -208.6 -35.6 -198.8 -64.2C-188.9 -92.7 -139.1 -107.8 -99.3 -144.9C-59.6 -182 -29.8 -241 2 -243.7C33.7 -246.4 67.4 -192.8 91.2 -150.5" fill="#BB004B"></path></g></svg>